<svg width="32" height="32" viewBox="0 0 100 120" xmlns="http://www.w3.org/2000/svg">

  <!-- Outer flame — tight crop, fills viewBox -->
  <path d="
    M 50,2
    C 68,22 92,45 94,72
    C 96,98 80,116 50,118
    C 20,116 4,98 6,72
    C 8,45 32,22 50,2
    Z
  " fill="none" stroke="#F56E0F" stroke-width="7" stroke-linejoin="round"/>

  <!-- Middle inner flame -->
  <path d="
    M 50,24
    C 63,40 80,58 81,78
    C 82,97 70,110 50,114
    C 30,110 18,97 19,78
    C 20,58 37,40 50,24
    Z
  " fill="none" stroke="#F56E0F" stroke-width="6" stroke-linejoin="round"/>

  <!-- Innermost core -->
  <path d="
    M 50,58
    C 56,68 62,78 61,90
    C 60,100 55,107 50,108
    C 45,107 40,100 39,90
    C 38,78 44,68 50,58
    Z
  " fill="none" stroke="#F56E0F" stroke-width="5" stroke-linejoin="round"/>

</svg>